<svg xmlns="http://www.w3.org/2000/svg" viewBox="0 0 900 220" role="img" aria-labelledby="title">
  <title id="title">Cater Vegas night mountain logo</title>
  <defs>
    <radialGradient id="skyGlow" cx="62%" cy="18%" r="72%">
      <stop offset="0" stop-color="#24405e"/>
      <stop offset="0.48" stop-color="#071524"/>
      <stop offset="1" stop-color="#02050b"/>
    </radialGradient>
    <linearGradient id="fade" x1="0" x2="0" y1="0" y2="1">
      <stop offset="0" stop-color="#071321"/>
      <stop offset="0.62" stop-color="#08111b"/>
      <stop offset="1" stop-color="#010204"/>
    </linearGradient>
    <filter id="softGlow" x="-20%" y="-20%" width="140%" height="140%">
      <feGaussianBlur stdDeviation="2.2" result="blur"/>
      <feMerge>
        <feMergeNode in="blur"/>
        <feMergeNode in="SourceGraphic"/>
      </feMerge>
    </filter>
  </defs>
  <rect width="900" height="220" fill="url(#skyGlow)"/>
  <g opacity="0.88" fill="#d7e4ff">
    <circle cx="46" cy="18" r="1.2"/>
    <circle cx="88" cy="44" r="0.9"/>
    <circle cx="136" cy="26" r="1.1"/>
    <circle cx="196" cy="36" r="0.8"/>
    <circle cx="262" cy="16" r="1"/>
    <circle cx="318" cy="54" r="1.1"/>
    <circle cx="366" cy="28" r="0.75"/>
    <circle cx="422" cy="46" r="1.2"/>
    <circle cx="486" cy="20" r="0.9"/>
    <circle cx="548" cy="58" r="1"/>
    <circle cx="604" cy="30" r="1.25"/>
    <circle cx="672" cy="18" r="0.9"/>
    <circle cx="732" cy="48" r="1.15"/>
    <circle cx="808" cy="26" r="0.85"/>
    <circle cx="860" cy="56" r="1"/>
    <circle cx="514" cy="82" r="0.7"/>
    <circle cx="568" cy="96" r="0.8"/>
    <circle cx="626" cy="84" r="0.7"/>
    <circle cx="700" cy="92" r="0.8"/>
    <circle cx="780" cy="86" r="0.7"/>
  </g>
  <g opacity="0.26" fill="#cbd8ff" filter="url(#softGlow)">
    <circle cx="642" cy="35" r="1.1"/>
    <circle cx="654" cy="42" r="0.9"/>
    <circle cx="668" cy="32" r="1"/>
    <circle cx="682" cy="50" r="0.8"/>
    <circle cx="694" cy="40" r="1.1"/>
    <circle cx="710" cy="58" r="0.9"/>
    <circle cx="724" cy="48" r="0.8"/>
    <circle cx="738" cy="66" r="1"/>
    <circle cx="752" cy="54" r="0.7"/>
    <circle cx="766" cy="72" r="0.9"/>
  </g>
  <path d="M0 132 65 100l70 39 74-52 76 54 72-46 72 48 78-58 74 54 77-42 80 41 78-30 84 34v78H0z" fill="#020409"/>
  <path d="M0 148 72 132l74 20 84-26 88 28 82-22 98 25 92-29 108 28 88-22 114 27v59H0z" fill="#03060b" opacity="0.9"/>
  <path d="M0 170h900v50H0z" fill="#010204" opacity="0.78"/>
  <path d="M126 170c96 26 188 33 276 21 104-14 209-18 320 7 66 15 124 18 178 9v13H0v-36c42-21 84-26 126-14z" fill="#09101b" opacity="0.45"/>
  <text x="450" y="76" text-anchor="middle" fill="#f5f1ea" font-family="Avenir, Helvetica, Arial, sans-serif" font-size="28" font-weight="700" letter-spacing="12">CATER VEGAS</text>
  <rect width="900" height="220" fill="url(#fade)" opacity="0.16"/>
</svg>
